<?xml version="1.0" encoding="UTF-8"?>
<svg id="Layer_1" data-name="Layer 1" xmlns="http://www.w3.org/2000/svg" viewBox="0 0 4286.98 1827.76">
  <defs>
    <style>
      .cls-1 {
        fill: #524030;
      }

      .cls-2 {
        fill: #f1b18e;
      }

      .cls-3 {
        fill: #2b2a29;
      }

      .cls-4 {
        fill: #bb8b6d;
      }

      .cls-5 {
        fill: #f0ae7c;
      }

      .cls-6 {
        fill: #a9a195;
      }
    </style>
  </defs>
  <path class="cls-3" d="m947.03,1085.63c-17.8-9.87-32.95-23.06-46.95-37.66-9.07-9.46-16.8-19.97-24.42-31.47,4.64.37,7.74-5.18,12.52-1.74.38.77.71,2.18,1.15,2.21,12.57.96,24.95.49,36.33-5.87,1.39-.78,2.84-2.1.04-3.2,15.56-7.48,30.57-16.24,47.46-20.65.22-.06.44-.12.65-.22,5.84-2.8,14.3-26.51,11.24-32.3-2.58-4.88-3-10.81-7.23-14.87-.43-11.04-3.35-21.71-4.59-32.73,2.93,10.53,10.71,19.19,10.67,30.87-.03,6.55,3.9,11.8,7.89,16.7.98,1.2,2.91,3.5,4.24.71,3.53-7.43,7.48-3.39,11.32-.68,4.5,3.16,6.31,8.43,8.09,13.07,3.73,9.69,9.35,12.21,18.63,6.84,1.1-.64,2.09-.85,3.2-.35,2.71,1.21,5.16,1.16,5.87-2.19.64-3.02.3-5.72-3.53-7.06-3.84-1.35-4.68-4.56-1.67-7.37,5.14-4.8,26.37-6.1,32.39-2.4,3.88,2.38,3.85,6.27-.11,8.36-1.2.64-2.54,1-3.76,1.61-1.8.9-1.85,2.61-1.33,4.15.66,1.95,3.23,3.38,4.2,2.45,2.69-2.59,5.37-1.05,8.12-1.34,4.07-.42,8.82,1.17,12.2-2.27,2.24-2.28,5.05-3.1,7.83-3.85,5.49-1.48,9.4-3.37,6.24-10.23-1.14-2.48-.32-5.41.91-7.97.63-1.32-.17-3.75,2.04-3.78,1.78-.02,3.39,1.01,3.91,3.21.45,1.91,1.25,4.59,3.82,3.33,3.3-1.62,7.26-3.23,7.33-7.97.1-7.41,6.98-14.66.43-22.37-.72-.85.28-3.57,1.02-5.19,7.18-15.75,6.34-31.8,2.41-48.13-2.22-9.23-2.59-19.36-8.89-26.8-5.64-6.66-7.36-14.87-11.26-22.17-1.96-3.68-.51-9.58-7.71-8.73-4.73.56-9.4-2.54-14.14-.98-2.57.84-2.31,5.05-5.35,5.72-7.05,1.55-13.4,4.14-19.79,7.91-8.28,4.88-17.12,11.24-28.08,6.66-.83-.35-2.14.57-3.25.79-11.5,2.24-18.77,10.23-26.15,18.75,1.14.35,1.77.62,2.42.73,8.43,1.39,16.89,2.62,25.29,4.19,2.59.49,5.78,1.7,5.77,4.78,0,3.55-3.13,3.87-6.09,3.76-5.94-.22-11.9-.02-17.81-.57-7.41-.69-14.07,1.07-19.96,5.36-3.15,2.29-5.45,2.5-9.08.54-6.23-3.36-8.5-1.63-8.59,5.75-.13,10.64-.03,21.28-.03,31.92-.67.33-1.34.67-2.01,1,.08-13.02-7.4-21.37-15.76-29.18.86-4.53-1.68-8.59-1.48-13.16-6.78,4.21-10.25,3.92-15-2.89-4.58-6.56-8.38-13.78-7.11-22.38-.27-.43-.54-.87-.81-1.3-.45-2.34-.9-4.68-1.35-7.02,5.73-2.15,2.89-4.51.17-6.86-.02-.91-.03-1.83-.05-2.74.27-.46.55-.93.82-1.39.13-.47.26-.94.39-1.41.3-.49.6-.97.91-1.46,0,0,.16-.16.16-.16.49-.32.99-.63,1.48-.95,2.42-2.74,4.84-5.48,7.26-8.22.77-.2,1.27-.6,1.04-1.5,11.79-6.3,11.63-10.18,5.58-17.69-1.01-.55-2.02-1.11-3.03-1.66-.01-4.3,1.92-7.11,5.23-10.13,10.47-9.57,19.06-20.76,25.29-33.64,2.46-5.08,7.63-6.25,12.27-8.15,4.39.9,7.47-.81,9.43-4.75.42-.26.84-.53,1.26-.79,3.54,2.16,6.06,1.43,7.03-2.74.42-1.81,1.25-2.82,3.09-2.97,9.45.04,18.8-2.49,28.3-1.06,7.32,4.74,15.85,3.63,23.87,4.9,1.59.25,2.28-1.14,2.65-2.54,10.43,2.8,19.92,7.54,28.85,13.55,2.52,1.7,5.37,2.91,8.08,4.35,1.6,5.87,6.63,5.08,10.96,5.65,0,0,0,0,0,0,2.08,5.28,5.86,8.79,11.15,10.74.48.49.97.98,1.45,1.47.36.46.73.91,1.09,1.37.14.46.27.92.4,1.38,3.22,2.77,5.58,6.87,10.6,6.86,2.43,4.24,5.96,6.02,10.86,7.34,4.92,1.33,9.08,5.52,13.46,8.62.48.34.3,2.52.26,2.52-7.32.87-2.31,6.05-3.14,9.11-3.16,11.61-6.73,22.94-12.14,33.88-4.37,8.83-4.71,19.15-3.48,29.18-2.53,9.74-8.55,17.65-8.94,29.07-.47,13.64-.58,27.42-1.14,41.12-4.52,5.22-2.76,12.24-5.22,18.12-3,7.19-.32,13.36,4.51,18.99,1.59,1.85,3.04,4.31,3.37,6.65,1.84,12.94,11.76,19.95,20.36,27.7,4.49,4.05,10.74,5.34,16.89,5.8.23,1.57.24,3.63,2.35,3.56,4.06-.13,7.35,2.22,11.1,3.08,8.02,1.84,10.96,5.62,10.56,12.14,5.25,0,10.49-.05,15.72.01,7.67.09,15.29.58,22.63,3.11-25.36,34.05-57.66,58.99-97.37,74.2-15.97,6.12-32.25,11.04-49.27,13.25-2.7.35-3.94-1.53-4.74-3.13-.89-1.8-1.26-3.84-2.85-5.28-2.21-3.17-4.3-6.43-6.65-9.49-3.74-4.85-3.41-8.63,1.46-12.89,6.67-5.83,14.61-10.15,20.23-17.21,6.79-8.53,14.31-16.6,16.91-27.69.35-1.49,1.7-3.76-.24-4.23-7.86-1.91-3.08-5.97-1.59-9.05,4.1-8.47,6.36-17.13,4.8-28.03-3.98,6.3-8.33,10.32-13.1,13.68-10.57,7.44-23.21,7.17-35.31,8.53-4.46.5-9.51.89-13.54-.65-17.67-6.74-34.2-15.62-48.09-28.83-1.63-1.55-2.97-5.07-5.92-3.17-2.39,1.53-1.29,4.44-.66,6.9,2.7,10.67,6.2,21.19,3.84,32.55-1.23,5.94.43,11.49,4.27,16.4,2.38,3.05,3.5,7.39,1.89,10.4-4.55,8.52-1.05,16.33.61,24.44,2.3,11.29,4.41,22.62,6.61,33.93-12.2-2.99-24.55-5.51-36.03-10.88.51-4.48,3.83-7.54,5.69-11.33.64-1.3,2.2-2.62.26-4.07-.5-.38-1.23-.81-1.77-.72-2.16.36-.66,2.16-1.13,3.21-1.83,4.1-3.65,8.21-7.99,10.38-1.14-.48-2.27-.96-3.41-1.43-1.89-4.45-6.55-5.29-10.08-7.47-7.69-4.74-7.72-4.52-3.36-12.14,1.26-2.19,3.64-4.21,2.15-7.7-5.32,4.42-6.25,11.81-11.67,15.77Zm131.41-70.76c9.73-.64,17.07-2.57,23.03-10.24,4.8-6.18,4.75-13.58,8.24-19.85.92-1.65,1.22-3.63-.75-4.87-1.89-1.19-2.76.79-4.03,1.59-12.16,7.66-22.62,18.19-37.25,21.75-2.19.53-4.15,2.78-4.92,5.37-.43,1.45-.19,3.49,1.3,3.16,5.7-1.25,10.33,2.1,14.38,3.08Zm-125.59-159.86c.26-5.47-1.77-8.89-5.68-8.64-1.88.12-4.59,3.34-4.1,6.66.58,3.86,3.44,4.84,6.83,4.93,3.14.08,2.8-2.74,2.95-2.95Z"/>
  <path class="cls-5" d="m955.11,874.66c8.36,7.81,15.84,16.16,15.76,29.18.67-.33,1.34-.67,2.01-1,0-10.64-.1-21.28.03-31.92.09-7.38,2.36-9.11,8.59-5.75,3.63,1.96,5.93,1.75,9.08-.54,5.89-4.29,12.55-6.05,19.96-5.36,5.9.55,11.87.35,17.81.57,2.96.11,6.08-.2,6.09-3.76,0-3.08-3.18-4.3-5.77-4.78-8.4-1.57-16.86-2.81-25.29-4.19-.65-.11-1.28-.38-2.42-.73,7.38-8.52,14.65-16.51,26.15-18.75,1.11-.22,2.42-1.14,3.25-.79,10.97,4.59,19.8-1.78,28.08-6.66,6.39-3.76,12.74-6.35,19.79-7.91,3.04-.67,2.78-4.88,5.35-5.72,4.75-1.56,9.41,1.54,14.14.98,7.2-.85,5.75,5.05,7.71,8.73,3.89,7.3,5.62,15.5,11.26,22.17,6.3,7.45,6.67,17.57,8.89,26.8,3.93,16.33,4.77,32.39-2.41,48.13-.73,1.61-1.74,4.34-1.02,5.19,6.55,7.71-.33,14.95-.43,22.37-.07,4.74-4.03,6.34-7.33,7.97-2.56,1.26-3.36-1.42-3.82-3.33-.52-2.2-2.13-3.23-3.91-3.21-2.22.03-1.41,2.45-2.04,3.78-1.23,2.57-2.06,5.49-.91,7.97,3.16,6.86-.75,8.75-6.24,10.23-2.78.75-5.58,1.57-7.83,3.85-3.38,3.44-8.13,1.85-12.2,2.27-2.75.28-5.43-1.25-8.12,1.34-.97.94-3.54-.5-4.2-2.45-.53-1.55-.47-3.25,1.33-4.15,1.21-.61,2.56-.97,3.76-1.61,3.95-2.1,3.98-5.98.11-8.36-6.02-3.7-27.25-2.4-32.39,2.4-3.01,2.81-2.17,6.02,1.67,7.37,3.83,1.34,4.17,4.04,3.53,7.06-.71,3.35-3.16,3.41-5.87,2.19-1.1-.49-2.1-.28-3.2.35-9.29,5.38-14.91,2.85-18.63-6.84-1.78-4.64-3.6-9.91-8.09-13.07-3.84-2.7-7.79-6.75-11.32.68-1.33,2.8-3.27.49-4.24-.71-3.98-4.9-7.91-10.15-7.89-16.7.05-11.68-7.74-20.33-10.67-30.87,1.24,11.03,4.16,21.69,4.59,32.73-6.96,2.73-12.88-.81-15.09-9.95-.72-2.99-2.36-6.23-.73-9.74,1.01-2.17-.15-4.8-1.4-6.45-6.08-8.02-6.14-17.79-8.08-26.95-.87-4.09-1.18-8.7,2.59-12.1Zm134.69-16.53l.06.05c-12.15-3.62-22.03-1.04-27.57,7.8,3.83-.92,7.14,2.09,10.67-.93,1.7-1.45,2.58.68,3.62,1.87,4.63,5.3,8.27,5.12,11.58-.63.8-1.4.97-3.34,3.15-2.54,1.62.6,3.99,1.27,3.51,3.52-.79,3.7,1.47,3.53,3.38,2.68,2.09-.93,5.56-.6,5.74-3.93.17-3.15-2.31-4.96-4.9-5.81-2.97-.97-5.88-2.6-9.22-2.08Zm-9.29,77.64c-17.53.43-34.93-.33-51.91,5.04,1.97-1.97,3.48-4.06,6.57-4.42,4.37-.51,8.31-2.54,11.54-5.53,2.86-2.65,3.45-6.26-.71-7.53-3.6-1.1-8.78-2.91-10.37,3.74-.46,1.93-2.23,3.05-3.9,4.37-4,3.19-8.67,2.77-13.09,3.77-4.66,1.05-7.4,4.37-6.53,8.8.66,3.36,2.33,8.57,7.62,6.38,10.47-4.35,21.48-4.66,32.38-6.47,12.52-2.07,24.43-4.65,36.91-.74,3.64,1.14,6.47-1.21,6.88-4.65.55-4.67-4.42-9.27-9.57-8.72-8.09.86-15.08-.48-20.46-7.13-.82-1.02-2.2-1.61-3.36-2.33-4.05-2.54-5.76,2.15-8.52,3.25-2.05.81-.3,4.71.87,6.54,2.1,3.29,5.68,1.79,8.8,1.56,6.02-.44,11.96-.37,16.84,4.09Zm6.42-93.16c-8.03.95-15.72,2.13-23.02,5.52-3.09,1.44-3.15,3.48-2.98,6.01.2,2.99,2.52,2.6,4.54,2.79,3.72.35,7.48-.21,10.73-1.58,9.77-4.12,19.42-6.02,29.51-1.28,1.24.58,3.11,1.92,4.08-.33.6-1.39-.74-2.49-1.55-3.56-5.51-7.26-13.74-6.66-21.31-7.57Zm-58.4,23c-6.91-4.34-24.46-1.99-31.24,3.68-1.68,1.4-3.86,2.78-3.18,5.59.43,1.79,1.71,2.5,3.5,2.69,2.84.3,3.8-1.22,4.85-3.63,1.05-2.41,2.97-5.37,5.82-1.18,3.58,5.28,7.33,3.38,11.7.79,3.59-2.12,2.95-7.7,8.55-7.95Zm28.67,47.13c3.51.62,6.28,1.06,8.69-.93.91-.75.1-1.91-.67-2.12-3.04-.85-5.51.15-8.03,3.05Zm-26.84-45.64l-.39-.24-.05.38.44-.14Z"/>
  <path class="cls-2" d="m1130.82,928.2c.56-13.7.68-27.47,1.14-41.12.39-11.42,6.41-19.33,8.94-29.07,5.63,1.67,7.77,5.8,7.98,11.3.37,9.31.43,18.62-1.5,27.79-1.09,5.19-1.1,10.41-1.23,15.65-.27,11-4.29,15.06-15.35,15.45Z"/>
  <path class="cls-4" d="m930.7,834.92c.27.43.54.87.81,1.3-.83-.09-1.18-.47-.81-1.3Z"/>
  <path class="cls-4" d="m930.29,816.92c-.27.46-.55.93-.82,1.39-.47-.91,0-1.25.82-1.39Z"/>
  <path class="cls-4" d="m931.59,814.04c-.3.49-.6.97-.91,1.46-.38-.91.09-1.29.91-1.46Z"/>
  <path class="cls-4" d="m933.24,812.93c-.49.32-.99.63-1.48.95.17-.83.56-1.31,1.48-.95Z"/>
  <path class="cls-4" d="m1124.08,759.13c-.36-.46-.73-.91-1.09-1.37.83.09,1.28.47,1.09,1.37Z"/>
  <path class="cls-5" d="m1078.44,1014.87c-4.04-.98-8.68-4.34-14.38-3.08-1.5.33-1.73-1.72-1.3-3.16.77-2.6,2.73-4.84,4.92-5.37,14.63-3.55,25.09-14.09,37.25-21.75,1.27-.8,2.14-2.78,4.03-1.59,1.97,1.24,1.67,3.22.75,4.87-3.49,6.26-3.44,13.66-8.24,19.85-5.96,7.68-13.3,9.6-23.03,10.24Z"/>
  <path class="cls-5" d="m1046.37,1021c3.92-.97,8.42-4.29,13.94-3.05,1.45.33,1.68-1.7,1.26-3.13-.75-2.57-2.64-4.79-4.77-5.32-14.18-3.52-24.32-13.94-36.11-21.52-1.23-.79-2.07-2.75-3.9-1.57-1.91,1.23-1.62,3.18-.72,4.82,3.39,6.2,3.33,13.52,7.99,19.64,5.78,7.6,12.89,9.5,22.32,10.13Z"/>
  <path class="cls-1" d="m1080.52,935.77c-4.88-4.46-10.82-4.52-16.84-4.09-3.11.23-6.7,1.73-8.8-1.56-1.17-1.83-2.91-5.73-.87-6.54,2.76-1.1,4.47-5.78,8.52-3.25,1.16.73,2.53,1.31,3.36,2.33,5.38,6.64,12.37,7.98,20.46,7.13,5.15-.55,10.13,4.05,9.57,8.72-.41,3.45-3.24,5.79-6.88,4.65-12.48-3.91-24.39-1.33-36.91.74-10.9,1.8-21.91,2.12-32.38,6.47-5.28,2.2-6.96-3.02-7.62-6.38-.87-4.43,1.87-7.75,6.53-8.8,4.42-1,9.08-.58,13.09-3.77,1.66-1.32,3.44-2.44,3.9-4.37,1.59-6.64,6.76-4.83,10.37-3.74,4.16,1.27,3.57,4.88.71,7.53-3.23,2.99-7.17,5.02-11.54,5.53-3.09.36-4.6,2.45-6.57,4.42,16.98-5.37,34.38-4.61,51.91-5.04Z"/>
  <path class="cls-1" d="m1086.94,842.61c7.57.92,15.8.32,21.31,7.57.81,1.06,2.15,2.17,1.55,3.56-.97,2.25-2.83.91-4.08.33-10.1-4.73-19.74-2.84-29.51,1.28-3.25,1.37-7.01,1.93-10.73,1.58-2.02-.19-4.34.2-4.54-2.79-.17-2.54-.11-4.58,2.98-6.01,7.3-3.39,14.99-4.57,23.02-5.52Z"/>
  <path class="cls-1" d="m1089.8,858.14c3.34-.52,6.25,1.11,9.22,2.08,2.59.85,5.07,2.66,4.9,5.81-.18,3.33-3.65,3-5.74,3.93-1.91.85-4.17,1.02-3.38-2.68.48-2.25-1.89-2.93-3.51-3.52-2.18-.8-2.34,1.14-3.15,2.54-3.31,5.75-6.95,5.93-11.58.63-1.04-1.19-1.92-3.33-3.62-1.87-3.52,3.02-6.84.01-10.67.93,5.54-8.84,15.43-11.42,27.57-7.8-2.22,0-4.44,0-6.66,0,3.54,1.38,6.95,2.99,10.77,2.69.49,1.33,1.61,1.37,2.76,1.37.18.13.35.26.53.38l-.6-.32c-.6-1.11-1.64-1.32-2.77-1.34-1.37-.94-2.73-1.88-4.1-2.82Z"/>
  <path class="cls-1" d="m1028.54,865.61c-5.59.25-4.96,5.82-8.55,7.95-4.37,2.59-8.12,4.48-11.7-.79-2.84-4.19-4.77-1.23-5.82,1.18-1.05,2.4-2.01,3.93-4.85,3.63-1.79-.19-3.07-.89-3.5-2.69-.68-2.81,1.5-4.19,3.18-5.59,6.78-5.67,24.32-8.02,31.24-3.68Z"/>
  <path class="cls-1" d="m1057.21,912.74c2.52-2.9,4.99-3.89,8.03-3.05.76.21,1.58,1.37.67,2.12-2.41,1.99-5.19,1.54-8.69.93Z"/>
  <polygon class="cls-1" points="1030.37 867.1 1029.94 867.23 1029.98 866.85 1030.37 867.1"/>
  <path class="cls-4" d="m1093.98,860.87c-3.82.29-7.23-1.31-10.77-2.69,2.22,0,4.44,0,6.66,0,0,0-.06-.05-.06-.05,1.37.94,2.73,1.88,4.1,2.82l.07-.08Z"/>
  <path class="cls-4" d="m1093.9,860.96c1.13.02,2.17.24,2.77,1.34l.07-.06c-1.15,0-2.27-.03-2.76-1.37,0,0-.07.08-.07.08Z"/>
  <path class="cls-4" d="m1096.67,862.3l.6.32c-.18-.13-.35-.26-.53-.38,0,0-.07.06-.07.06Z"/>
  <path class="cls-5" d="m1018,1010.42s25.27,38.25,87.5-1"/>
  <g>
    <path class="cls-6" d="m1014.44,1112.61c-2.19-11.31-4.3-22.64-6.61-33.93-1.66-8.11-5.16-15.92-.61-24.44,1.61-3.01.5-7.35-1.89-10.4-3.84-4.9-5.5-10.46-4.27-16.4,2.36-11.36-1.14-21.88-3.84-32.55-.62-2.46-1.73-5.37.66-6.9,2.95-1.9,4.3,1.62,5.92,3.17,13.89,13.21,30.42,22.09,48.09,28.83,4.03,1.54,9.07,1.15,13.54.65,12.1-1.36,24.74-1.09,35.31-8.53,4.78-3.36,9.12-7.38,13.1-13.68,1.57,10.9-.7,19.56-4.8,28.03-1.49,3.08-6.27,7.14,1.59,9.05,1.94.47.58,2.75.24,4.23-2.6,11.09-10.12,19.16-16.91,27.69-5.62,7.06-13.56,11.38-20.23,17.21-4.88,4.26-5.2,8.03-1.46,12.89,2.35,3.06,4.45,6.32,6.65,9.49-6.35,2.76-9.43-3.55-14.11-5.36-1.17-.45-2.29-4.07-1.69-5.52,3.2-7.83,2.64-17.11,9.27-23.66,4.35-4.29,2.37-7.71-2.24-10.23-1.36-.74-3.43-.94-2.84-3.08.46-1.65,2.28-1,3.56-1.17,4.54-.6,8.81-1.98,13.09-3.66,4.97-1.96,3.36-4.27.58-6.21-2.34-1.63-5.08-2.65-8.34-1.94-15.05,3.29-28.33-2.12-40.87-9.42-4.67-2.72-9.74-4.93-13.82-8.76-2.81-2.63-6.31-1.7-8.6.82-2.38,2.61-8.51,3.18-5.6,9.19.88,1.81.51,4.63,1.79,5.77,10.04,8.94,7.13,22.16,11.06,33.09,3.58,9.94,3.79,20.81,3.85,31.43.04,8.23-6.28,3.09-9.6,4.3Z"/>
    <path class="cls-6" d="m1014.44,1112.61s-13.75,12.91,64.49-5.59l-15.81-10.88,29.71-45.86-37.46-19.97-41.87-10.72-12.44,7.86,6.77,51.23,6.61,33.93Z"/>
  </g>
</svg>