<?xml version="1.0" encoding="utf-8"?>
<!-- Generator: Adobe Illustrator 27.3.1, SVG Export Plug-In . SVG Version: 6.00 Build 0)  -->
<svg version="1.1" id="Layer_1" xmlns="http://www.w3.org/2000/svg" xmlns:xlink="http://www.w3.org/1999/xlink" x="0px" y="0px"
	 viewBox="0 0 595.28 841.89" style="enable-background:new 0 0 595.28 841.89;" xml:space="preserve">
<style type="text/css">
	.st0{fill:#FFFFFF;stroke:#FFFFFF;stroke-miterlimit:10;}
</style>
<path d="M-1812.94-432.89h-113.36c-94.76,0-171.57-76.82-171.57-171.57v0c0-94.76,76.82-171.57,171.57-171.57h113.36
	c94.76,0,171.57,76.82,171.57,171.57v0C-1641.37-509.7-1718.18-432.89-1812.94-432.89z"/>
<g>
	<path class="st0" d="M-1809.02-560.06c-0.61,0.98-1.2,1.54-1.3,2.18c-0.62,3.68-3.48,5.5-6.17,7.35c-2.55,1.76-5.33,3.18-8.02,4.73
		c-1.82,1.05-3.27-0.02-3.98-1.37c-0.62-1.18-0.4-2.8-0.46-4.23c-0.01-0.14,0.75-0.53,0.93-0.43c0.43,0.24,0.85,0.66,1.05,1.11
		c1.19,2.7,1.07,2.4,3.85,1.5c5.8-1.88,8.47-6.92,11.88-11.19c1.09-1.36,0.42-2.3-1.37-2.37c-0.16-0.01-0.32,0-0.47,0.01
		c-2.29,0.18-4.53,0.03-5.76-2.26c-1.17-2.17-0.29-6.35,1.49-8.32c0.41-0.46,0.62-1.11,0.92-1.67c-0.13-0.18-0.26-0.36-0.39-0.54
		c-2.15,0.57-4.28,1.18-6.44,1.7c-2.36,0.56-3.7,1.51-4.26,4.33c-0.41,2.08-2.56,4.13-4.43,5.54c-5.45,4.09-11.42,7.2-18.48,7.25
		c-1.15,0.01-2.57-0.42-3.42-1.16c-1.88-1.64-3.08-0.9-4.6,0.5c-1.16,1.07-2.62,2.23-4.1,2.48c-5.35,0.9-7.28-2.54-7.27-7.5
		c0-0.67,0.26-1.34,0.51-2.52c-2.84,0.82-5.16,2-6.87,3.82c-2.59,2.75-5.59,4.14-9.29,4.41c-0.83,0.06-1.87,0.59-2.37,1.25
		c-2.85,3.73-6.41,6.46-10.58,8.59c-2.07,1.06-3.78,2.8-5.77,4.06c-2.16,1.36-4.64,1.91-6.93,0.56c-2.49-1.47-3.77-4.2-3.42-6.81
		c0.47-3.43,1.76-6.79,3.04-10.04c2.28-5.82,5.94-10.86,9.86-15.65c2.23-2.72,5.08-4.93,7.68-7.4c-1.31,0.47-2.81,0.92-4.23,1.54
		c-5.32,2.32-10.41,5.55-15.96,6.81c-6.21,1.41-7.37,6.5-10.03,10.54c-2.58,3.92-4.48,8.28-7.03,12.22c-1.04,1.6-3,2.61-4.55,3.88
		c-1.57,1.28-3.09,2.64-4.74,3.81c-3.74,2.66-9.22,1.15-11.72-2.65c-1.95-2.97-3.08-6.06-3.43-9.53c-0.06-0.61-0.59-1.16-0.87-1.7
		c-4.05,4.17-7.9,8.19-11.82,12.13c-0.92,0.93-2.2,1.51-3.09,2.46c-0.66,0.7-1.34,1.73-1.35,2.63c-0.03,2.37-1.68,3.47-3.22,4.62
		c-1.44,1.08-2.83,0.45-2.64-1.32c0.35-3.4,0.9-6.81,1.75-10.11c1.13-4.37,2.61-8.65,3.96-12.96c1.33-4.26,2.66-8.51,4-12.77
		c0.26-0.82,0.49-1.64,0.77-2.45c0.88-2.62,1.77-5.23,2.74-8.12c-2.89,0.23-5.4,1.26-7.53,2.93c-5.1,3.99-10.24,7.96-15.02,12.3
		c-2.92,2.65-5.25,5.96-7.8,9.01c-3.16,3.8-6.38,7.55-9.37,11.48c-2.82,3.71-5.33,7.66-8.08,11.42c-1.09,1.48-2.4,2.82-3.74,4.09
		c-3.49,3.31-7.04,6.57-10.62,9.79c-0.55,0.49-1.37,0.84-2.1,0.92c-0.87,0.09-1.77-0.19-2.66-0.31c0.24-0.91,0.4-1.85,0.74-2.73
		c0.89-2.32,1.72-4.69,2.83-6.91c2.18-4.39,4.57-8.69,6.81-13.05c2.39-4.65,4.83-9.28,7.06-14.01c3.1-6.57,5.82-13.33,9.1-19.81
		c2.29-4.52,5.04-8.84,7.95-13c4.11-5.89,8.51-11.58,12.87-17.28c1.28-1.68,2.78-3.22,4.34-4.64c3.97-3.6,6.84-8.04,9.89-12.36
		c1.74-2.46,3.75-4.72,5.71-7.01c3.52-4.09,6.98-8.24,10.68-12.17c3.95-4.19,8.6-7.8,12.1-12.32c3.05-3.93,6.88-6.51,10.85-9.12
		c1.88-1.24,3.7-2.99,5.78-3.42c2.99-0.62,6.44-1.05,9.23-0.14c6.09,2,11.2,5.85,13.45,12.13c1.76,4.91,3.3,10.02,2.82,15.39
		c-0.72,8.1-1.42,16.21-2.37,24.28c-0.28,2.37-1.45,4.62-2.07,6.96c-1.23,4.68-2.2,9.44-3.59,14.07c-0.99,3.28-2.42,6.44-3.8,9.58
		c-1.59,3.61-3.33,7.15-5.29,11.3c1.46-0.1,2.33,0.04,3.02-0.25c4.46-1.89,8.92-3.82,13.32-5.85c4.18-1.93,8.55-3.61,12.38-6.1
		c4.81-3.13,9.16-6.97,13.69-10.52c2.38-1.86,4.82-3.67,7.08-5.67c1.21-1.07,2.22-2.41,3.1-3.78c1.52-2.36,2.99-4.77,4.27-7.26
		c2.47-4.8,4.59-9.78,7.24-14.46c1.71-3.03,4.15-5.64,6.2-8.49c1.14-1.59,2.09-3.31,3.19-4.93c1.9-2.82,3.81-5.64,5.8-8.4
		c0.53-0.74,1.27-1.44,2.07-1.85c2.18-1.12,3.27-0.3,3.6,2.14c0.62,4.62-1.63,8.37-3.5,12.22c-1.09,2.24-2.29,4.48-3.77,6.47
		c-3.17,4.27-6.43,8.49-9.9,12.51c-2.48,2.87-5.39,5.37-8.04,8.1c-0.64,0.66-1.08,1.54-1.52,2.36c-3.03,5.65-6.07,11.29-9.03,16.98
		c-2.34,4.48-5.05,8.85-6.72,13.58c-2.08,5.9-4.93,11.32-8.16,16.61c-0.3,0.49-0.12,1.27-0.16,1.92c0.67-0.05,1.46,0.13,1.97-0.18
		c1.88-1.14,3.65-2.43,5.47-3.67c3.29-2.23,6.62-4.41,9.86-6.72c1.27-0.9,2.3-2.13,3.51-3.12c1.01-0.83,2.13-1.52,3.31-2.35
		c1.04,1.54,0.62,2.45-0.39,3.49c-1.99,2.05-4.23,4.02-5.59,6.46c-1.06,1.9-1.3,4.46-1.25,6.71c0.04,2.02,3.49,2.77,5.66,1.16
		c1.8-1.34,3.21-3.17,4.94-4.62c1.9-1.6,3.93-3.05,5.99-4.44c0.31-0.21,1.07,0.22,1.62,0.35c-0.19,0.69-0.18,1.54-0.6,2.02
		c-0.8,0.92-2.02,1.5-2.75,2.46c-1.55,2.02-0.73,3.76,1.86,3.69c2-0.05,4.09-0.46,5.94-1.2c3.11-1.23,6.17-2.67,9.06-4.36
		c1.64-0.96,3.09-2.45,4.23-4c0.58-0.77,0.54-2.26,0.26-3.28c-0.11-0.42-1.73-0.83-2.46-0.6c-3.45,1.09-6.76-0.63-10.17-0.29
		c-0.78,0.08-1.66-0.88-2.49-1.37c0.5-0.83,0.87-1.77,1.51-2.46c2.19-2.35,5.21-2.06,7.98-2.04c2.63,0.02,5.12,0.66,7.53,2.27
		c1.22,0.82,3.71,0.13,5.49-0.36c4.14-1.13,8.2-2.58,12.32-3.81c0.53-0.16,1.22,0.26,1.84,0.41c-0.27,0.57-0.4,1.35-0.85,1.67
		c-2.8,1.98-4.97,4.45-6.45,7.54c-1.04,2.17-0.78,4.52,0.61,5.36c1.59,0.96,5.59-0.02,6.62-1.66c0.45-0.73,0.62-1.73,1.22-2.25
		c0.63-0.55,2.06-1.17,2.39-0.88c1.79,1.52,3.43,0.78,4.66-0.38c2.2-2.08,4.51-4.23,6.02-6.79c2.16-3.65-0.05-6.89-4.32-7
		c-1.21-0.03-2.42,0-4.01,0c2.96-3.76,5.38-4.05,8.41-1.42c0.53,0.46,1.03,0.97,1.52,1.48c2.83,2.9,2.74,3.53,0.93,7.18
		c-2.42,4.9-6.39,7.96-11.07,10.41c-1.54,0.81-3.91,1.32-3.34,3.9c0.52,2.37,2.19,3.38,4.55,4.14c2.8,0.9,5.03-0.01,7.4-0.92
		c2.47-0.95,4.93-1.93,7.33-3.04c0.88-0.41,1.56-1.24,2.35-1.85c4.66-3.59,9.31-7.18,14-10.74c2.66-2.02,3.76-4.97,4.66-7.95
		c1.43-4.71,2.49-9.53,3.92-14.24c1.34-4.41,2.9-8.75,4.45-13.09c1.07-3.01,2.24-5.99,3.45-8.95c1.39-3.4,2.92-6.74,4.28-10.15
		c1.97-4.93,3.66-9.98,5.82-14.83c1.93-4.34,4.27-8.51,6.55-12.69c2.88-5.29,5.77-10.57,8.86-15.73
		c3.06-5.09,6.17-10.17,11.16-13.72c2.21-1.57,4.85-1.12,6.81,1.77c2.21,3.26,4.15,6.76,3.47,10.95c-0.29,1.77-0.79,3.51-1.32,5.22
		c-1.39,4.48-2.63,9.03-4.36,13.38c-1.35,3.39-3.21,6.61-5.05,9.78c-3.07,5.28-6.32,10.46-9.48,15.68
		c-2.92,4.81-5.71,9.7-8.77,14.43c-3.39,5.25-6.9,10.43-10.59,15.48c-2.9,3.97-6.14,7.68-9.21,11.52c-2.38,2.96-5.03,5.75-7.01,8.95
		c-1.78,2.89-2.79,6.25-4.18,9.39c-1.45,3.28-2.83,6.61-4.51,9.76c-0.4,0.74-1.92,0.89-2.92,1.31c0.04-1-0.2-2.12,0.17-2.98
		c0.93-2.16,2.19-4.17,3.18-6.3c0.28-0.59,0.09-1.39,0.12-2.1c-0.61,0.21-1.33,0.3-1.83,0.66c-6.33,4.6-12.47,9.38-19.76,12.63
		c-3.59,1.6-6.94,1.67-10.51,1.51c-0.97-0.04-1.98-0.8-2.83-1.42C-1806.95-558.01-1807.86-558.98-1809.02-560.06z M-2027.8-525.98
		c0.23,0.16,0.45,0.31,0.68,0.47c0.63-0.39,1.4-0.65,1.87-1.18c5.58-6.13,11.29-12.15,16.6-18.51c4.55-5.46,8.37-11.53,12.98-16.93
		c3.84-4.49,8.41-8.34,12.57-12.56c5.08-5.15,10.82-9.15,17.77-11.41c1.1-0.36,2.2-1.68,2.66-2.82c1.87-4.54,7.36-21.6,9.17-26.17
		c0.07-0.17,0.2-0.32,0.38-0.45c0.75-0.57,1.91-0.24,2.14,0.68c0.04,0.15,0.05,0.3,0.01,0.43c-1.01,3.53-5.96,19.46-7.27,22.88
		c-0.76,1.98,0.06,2.13,1.63,2.2c1.72,0.08,3.77-0.21,5.07,0.61c3.94,2.51,7.9,5.19,10.22,9.48c1.92,3.57,4.63,5.89,8.81,6.02
		c2.76,0.08,5.53,0.1,8.27-0.14c1.13-0.1,2.67-0.64,3.21-1.49c1.73-2.76,3.27-5.66,4.72-8.59c1.57-3.19,3.04-6.43,4.3-9.75
		c1.33-3.52,3.35-6.98,3.71-10.67c0.35-3.61,0.91-7.19,1.94-10.66c2.05-6.92,2.14-14.29,2.96-21.49c0.23-2.01,0.77-4.01,0.74-6.01
		c-0.04-2.52-0.34-5.07-0.88-7.53c-0.67-3.04-1.22-6.27-2.7-8.93c-1.99-3.54-5.31-5.63-9.3-7.26c-8.41-3.45-14.74,0.58-20.41,5.32
		c-5.73,4.8-10.51,10.74-15.62,16.27c-3.55,3.84-6.97,7.8-10.37,11.77c-2.23,2.6-4.32,5.32-6.45,8.01
		c-2.07,2.61-4.03,5.31-6.16,7.87c-3.72,4.48-7.57,8.86-11.28,13.35c-2.23,2.71-4.29,5.55-6.29,8.44c-3.12,4.49-6.54,8.83-9.18,13.6
		c-3.39,6.13-6.15,12.6-9.18,18.92c-2.04,4.24-4.06,8.48-6.13,12.7c-3.51,7.16-7.06,14.31-10.56,21.48
		C-2027.5-527.41-2027.6-526.67-2027.8-525.98z M-1761.87-586.2c0.29,0.17,0.58,0.33,0.88,0.5c0.71-0.84,1.47-1.65,2.13-2.53
		c2.84-3.8,5.69-7.6,8.47-11.45c1.77-2.45,3.47-4.97,5.14-7.5c1.53-2.33,2.9-4.76,4.49-7.05c3.23-4.65,6.79-9.1,9.79-13.89
		c3.2-5.09,5.97-10.46,8.84-15.75c2.71-4.99,5.78-9.86,7.86-15.12c2.31-5.84,4.83-11.88,3.83-18.41c-0.32-2.11-1.66-4.07-2.64-6.06
		c-0.14-0.29-0.94-0.55-1.26-0.42c-1.9,0.81-4.5,1.24-5.48,2.71c-4.63,6.95-8.9,14.15-13.11,21.37c-2.67,4.58-5.13,9.29-7.46,14.05
		c-1.68,3.42-3.04,7.01-4.44,10.56c-1.77,4.51-3.36,9.09-5.14,13.59c-1.29,3.27-2.94,6.41-4.1,9.72c-2,5.68-3.79,11.43-5.57,17.18
		C-1760.5-591.89-1761.13-589.03-1761.87-586.2z M-1973.01-546.82c0.28,0.11,0.56,0.22,0.83,0.34c1.26-0.6,2.73-0.95,3.72-1.85
		c1.61-1.46,2.84-3.32,4.34-4.91c2.41-2.55,4.84-5.1,7.41-7.49c1.44-1.34,2.89-0.91,3.48,0.87c0.47,1.4,0.98,2.88,1,4.33
		c0.07,3.78,1.11,6.73,4.6,8.87c2.93,1.79,5.26,1.84,7.53-0.69c0.87-0.97,2.14-1.58,3.09-2.49c2.41-2.3,5.18-4.39,7.01-7.09
		c2.39-3.54,4.05-7.58,5.97-11.44c0.29-0.58,0.29-1.29,0.43-1.94c-0.66-0.14-1.32-0.4-1.98-0.38c-2.67,0.05-5.34,0.28-8.01,0.26
		c-3.54-0.02-6.33-1.6-8.26-4.56c-2.67-4.08-5.64-7.79-9.95-10.36c-4.42-2.63-8.71-1.49-10.43,3.37
		c-3.48,9.8-6.82,19.65-10.08,29.52C-1972.91-550.7-1972.8-548.71-1973.01-546.82z M-1884.06-572.46c-0.16-0.04-0.32-0.08-0.48-0.11
		c0-0.71,0.04-1.42-0.01-2.12c-0.3-4.41-3.58-6.22-7.76-4.56c-1.9,0.75-3.34,1.69-4.56,3.4c-1.86,2.6-4.02,4.99-6.19,7.34
		c-5.33,5.75-7.69,12.66-8.08,20.31c-0.15,2.92,1.7,3.98,4.31,2.86c7.3-3.12,13.65-7.56,18.85-13.57c0.52-0.6,0.75-1.5,0.97-2.3
		c0.49-1.8,0.85-3.64,1.32-5.44C-1885.19-568.61-1884.61-570.53-1884.06-572.46z M-1854.78-618.01c0.23,0.07,0.46,0.13,0.69,0.2
		c2.27-2.48,4.66-4.86,6.79-7.46c2.13-2.59,3.93-5.45,6.01-8.09c3.35-4.24,5.42-9.11,7.16-14.15c0.15-0.42-0.01-1.2-0.32-1.45
		c-0.32-0.25-1.15-0.26-1.49-0.01c-0.87,0.65-1.76,1.38-2.35,2.27c-3.26,4.94-6.46,9.92-9.63,14.92c-1.66,2.63-3.34,5.27-4.76,8.03
		C-1853.61-621.94-1854.1-619.92-1854.78-618.01z M-1891.4-582.79c4.63-0.67,7.5,2.19,9.81,5.86c3.08-3.17,10.76-19.23,10.29-20.77
		C-1877.95-592.76-1884.67-587.78-1891.4-582.79z M-1833.32-574.61c-0.01-0.28-0.03-0.56-0.04-0.84c-1.07,0.07-2.15,0.13-3.22,0.2
		c0.01,0.21,0.03,0.42,0.04,0.64C-1835.47-574.61-1834.4-574.61-1833.32-574.61z"/>
	<path class="st0" d="M-1746.08-550.61c-0.07-1.42-0.3-2.82-0.16-4.19c0.16-1.53-0.39-2.09-1.81-1.89c-2.55,0.37-5.12,0.7-7.64,1.23
		c-8.35,1.74-16.66,3.61-25.02,5.31c-3.29,0.67-6.68,0.86-9.98,1.53c-3.67,0.75-7.32,1.68-10.91,2.75
		c-4.55,1.35-9.07,2.81-13.54,4.41c-6.32,2.25-12.57,4.72-18.89,6.97c-2.27,0.81-4.74,1.06-7,1.91c-8.42,3.16-16.77,6.46-25.16,9.69
		c-1.38,0.53-2.78,1.04-4.22,1.39c-0.48,0.12-1.08-0.3-1.63-0.47c0.25-0.58,0.34-1.45,0.77-1.68c1.87-0.98,3.82-1.81,5.77-2.63
		c3.45-1.45,6.9-2.92,10.4-4.25c2.92-1.11,5.91-2.04,8.87-3.03c4-1.34,8.02-2.63,12-4.02c5.96-2.09,11.9-4.28,17.85-6.4
		c4.86-1.73,9.74-3.42,14.61-5.12c0.66-0.23,1.34-0.45,2.02-0.58c6.76-1.3,13.55-2.45,20.27-3.91c4.79-1.04,9.48-2.5,14.22-3.78
		c0.23-0.06,0.45-0.14,0.69-0.17c6.03-1,12.09-1.78,18.06-3.06c3.65-0.78,7.16-2.24,10.68-3.52c1.2-0.44,2.45-0.69,2.63,0.69
		c0.12,0.9-0.73,2.35-1.56,2.87c-1.97,1.23-4.54,1.65-6.22,3.13C-1742.92-555.73-1744.18-553.24-1746.08-550.61z"/>
	<path class="st0" d="M-1725.5-581.51c-0.11,1.89-5.16,5.88-6.23,5.31c-0.61-0.33-1.23-2.04-1.01-2.26c1.45-1.39,3.04-2.7,4.79-3.69
		C-1727.4-582.47-1726.25-581.73-1725.5-581.51z"/>
	<path class="st0" d="M-1724.88-553.64c-0.16,2.11-0.33,3.72-2.29,3.5c-0.63-0.07-1.47-1.2-1.62-1.95
		c-0.31-1.59,0.68-2.61,2.26-2.59C-1725.89-554.67-1725.26-553.89-1724.88-553.64z"/>
</g>
</svg>
